<svg width="25" height="24" viewBox="0 0 25 24" fill="none" xmlns="http://www.w3.org/2000/svg">
<path d="M10 19C10 21.0006 10.3555 21.7561 11.0595 22.1961C11.4769 22.4569 12.1124 22.669 13.1083 22.8073C14.098 22.9448 15.3668 23 17 23C18.6332 23 19.902 22.9448 20.8917 22.8073C21.8876 22.669 22.5231 22.4569 22.9405 22.1961C23.6445 21.7561 24 21.0006 24 19C24 16.9994 23.6445 16.2439 22.9405 15.8039C22.5231 15.5431 21.8876 15.331 20.8917 15.1927C19.902 15.0552 18.6332 15 17 15C15.3668 15 14.098 15.0552 13.1083 15.1927C12.1124 15.331 11.4769 15.5431 11.0595 15.8039C10.3555 16.2439 10 16.9994 10 19Z" stroke="white" stroke-width="2" stroke-linecap="round" stroke-linejoin="round"/>
<path d="M12.6666 6C12.6666 8.87541 14.7142 11 16.9999 11C19.2857 11 21.3333 8.87541 21.3333 6C21.3333 3.12459 19.2857 1 16.9999 1C14.7142 1 12.6666 3.12459 12.6666 6Z" stroke="white" stroke-width="2"/>
<path d="M9.88881 3C7.75547 3 6.33325 5 6.33325 7C6.33325 9 7.75547 11 9.88881 11" stroke="white" stroke-width="2" stroke-linecap="round" stroke-linejoin="round"/>
<path d="M6.21503 21.0001C2.89651 21.0001 1.00022 20.5001 1.00022 17.5001C1.00022 14.5001 2.89651 14.0001 8.11133 14.0001" stroke="white" stroke-width="2" stroke-linecap="round" stroke-linejoin="round"/>
</svg>
